<svg xmlns="http://www.w3.org/2000/svg" viewBox="0 0 64 64" role="img" aria-label="Cookie Bees"><title>Cookie Bees</title><defs><clipPath id="cb-abdomen"><ellipse cx="32" cy="38.16" rx="12.76" ry="15.84"/></clipPath></defs><g transform="rotate(-12 32 32)">
  <ellipse cx="45.2" cy="18.8" rx="13.2" ry="7.26" fill="#fff" opacity=".92" stroke="#4A3208" stroke-width=".88" stroke-opacity=".35" transform="rotate(34 45.2 18.8)"/>
  <ellipse cx="18.8" cy="18.8" rx="13.2" ry="7.26" fill="#fff" opacity=".92" stroke="#4A3208" stroke-width=".88" stroke-opacity=".35" transform="rotate(-34 18.8 18.8)"/>
  <ellipse cx="32" cy="38.16" rx="12.76" ry="15.84" fill="#E5A70B"/>
  <g clip-path="url(#cb-abdomen)">
    <rect x="18.8" y="31.12" width="26.4" height="3.96" fill="#4A3208"/>
    <rect x="18.8" y="38.16" width="26.4" height="3.96" fill="#4A3208"/>
    <rect x="18.8" y="45.2" width="26.4" height="3.96" fill="#4A3208"/>
  </g>
  <path d="M32 54 l-2.42 -3.96 h4.84 Z" fill="#4A3208"/>
  <ellipse cx="32" cy="23.64" rx="9.46" ry="6.82" fill="#E5A70B"/>
  <circle cx="32" cy="15.5" r="7.04" fill="#F3D9A8" stroke="#E3BF84" stroke-width="1.1"/>
  <circle cx="29.6" cy="13.4" r="1.15" fill="#6B4A1F"/>
  <circle cx="34.3" cy="14.9" r="1.05" fill="#6B4A1F"/>
  <circle cx="30.9" cy="18.1" r=".95" fill="#6B4A1F"/>
  <path d="M35.08 10.44 q4.4 -6.16 8.36 -7.04" fill="none" stroke="#4A3208" stroke-width="1.5" stroke-linecap="round"/>
  <circle cx="43.44" cy="3.4" r="1.76" fill="#4A3208"/>
  <path d="M28.92 10.44 q-4.4 -6.16 -8.36 -7.04" fill="none" stroke="#4A3208" stroke-width="1.5" stroke-linecap="round"/>
  <circle cx="20.56" cy="3.4" r="1.76" fill="#4A3208"/>
</g></svg>